<svg xmlns="http://www.w3.org/2000/svg" width="146.3" height="40.38"><g><path d="M71.87 18.66c0-.7.58-1.29 1.26-1.29h7.18c5.09 0 8.44 2.7 8.44 7.15v.06c0 4.86-4.06 7.38-8.86 7.38h-5.47v6.82c0 .7-.58 1.29-1.3 1.29-.67 0-1.25-.58-1.25-1.29V18.66zM80 29.64c3.73 0 6.18-2 6.18-4.96v-.06c0-3.22-2.41-4.9-6.05-4.9h-5.7v9.92h5.57zM93.6 18.5c0-.7.58-1.29 1.26-1.29.7 0 1.29.58 1.29 1.29v20.28c0 .71-.58 1.29-1.3 1.29-.67 0-1.25-.58-1.25-1.29V18.5zM102.74 18.53c0-.67.58-1.25 1.26-1.25h.35c.58 0 .94.29 1.3.74l13.68 17.45v-17c0-.68.54-1.26 1.25-1.26.68 0 1.23.58 1.23 1.26v20.35c0 .67-.48 1.19-1.16 1.19h-.13c-.55 0-.94-.32-1.32-.78l-13.97-17.86v17.45c0 .67-.55 1.25-1.26 1.25-.68 0-1.22-.58-1.22-1.25V18.53zM128.17 18.5c0-.7.58-1.29 1.26-1.29.7 0 1.29.58 1.29 1.29v12.33l12.84-13.16c.3-.26.58-.45 1-.45.68 0 1.23.61 1.23 1.26 0 .35-.16.64-.42.9l-7.99 7.92 8.57 10.56c.22.29.35.54.35.93 0 .68-.58 1.3-1.28 1.3-.49 0-.81-.27-1.03-.59l-8.4-10.46-4.87 4.86v4.9c0 .7-.58 1.28-1.28 1.28-.68 0-1.26-.58-1.26-1.29V18.5z"/></g><path fill="#D22856" d="M60.46 28.02L55.3 6.65C54.93 4.3 52.69 0 46.69 0a1.5 1.5 0 100 3c4.85 0 5.57 3.73 5.64 4.14l4.76 19.7h-2.07c-.74-5.92-5.8-10.53-11.93-10.53s-11.18 4.6-11.92 10.53h-1.82c-.74-5.92-5.8-10.53-11.93-10.53S6.23 20.91 5.49 26.84H3.42l4.77-19.7C8.25 6.73 8.97 3 13.83 3a1.5 1.5 0 100-3c-6.01 0-8.24 4.3-8.6 6.65L.05 28.02c-.26 1.1.53 1.82 1.43 1.82H5.5c.74 5.93 5.8 10.54 11.92 10.54s11.19-4.6 11.93-10.53h1.81c.75 5.92 5.8 10.53 11.93 10.53s11.19-4.6 11.93-10.53h4.02c.9 0 1.69-.73 1.42-1.83zm-34.15 1.82a9.03 9.03 0 11-17.8-2.98 9.03 9.03 0 0117.8 2.98zm25.68 0a9.03 9.03 0 11-17.8-2.99 9.03 9.03 0 0117.8 3z"/></svg>