 <svg xmlns="http://www.w3.org/2000/svg" width="74.43" height="22.86"><g><path d="M0 1.45C0 .75.58.16 1.26.16h7.18c5.08 0 8.43 2.7 8.43 7.15v.06c0 4.86-4.06 7.38-8.85 7.38H2.54v6.82c0 .7-.58 1.29-1.28 1.29-.68 0-1.26-.58-1.26-1.29V1.45zm8.11 10.98c3.74 0 6.19-2 6.19-4.96v-.06c0-3.23-2.42-4.9-6.06-4.9h-5.7v9.92h5.57zM21.73 1.29c0-.71.58-1.29 1.25-1.29.71 0 1.3.58 1.3 1.29v20.28c0 .7-.59 1.29-1.3 1.29-.67 0-1.25-.58-1.25-1.29V1.3zM30.87 1.32c0-.68.58-1.26 1.26-1.26h.35c.58 0 .93.3 1.29.74l13.68 17.45v-17C47.45.59 48 0 48.71 0c.67 0 1.22.58 1.22 1.26V21.6c0 .68-.48 1.2-1.16 1.2h-.13c-.54 0-.93-.33-1.32-.78L33.35 4.15V21.6c0 .68-.55 1.26-1.26 1.26-.67 0-1.22-.58-1.22-1.26V1.32zM56.3 1.29c0-.71.58-1.29 1.26-1.29.7 0 1.28.58 1.28 1.29v12.33L71.7.45c.29-.26.58-.45 1-.45.67 0 1.22.61 1.22 1.26 0 .35-.16.64-.42.9l-7.98 7.92 8.56 10.56c.23.29.36.54.36.93 0 .68-.58 1.29-1.29 1.29-.48 0-.8-.26-1.03-.58l-8.4-10.46-4.87 4.86v4.9c0 .7-.57 1.28-1.28 1.28-.68 0-1.26-.58-1.26-1.29V1.3z"/></g></svg>