<svg xmlns="http://www.w3.org/2000/svg" xmlns:xlink="http://www.w3.org/1999/xlink"><symbol id="footer__copyright-logo"><path d="M13.6 0h-.1L0 1.4v24.7l13.5 8 13.4-8V1.4L13.6 0zM25 12.1L13.5 5.3h-.2L2 12.1v-9L13.5 2 25 3.1v9zM13.4 6.8l11.5 6.7-4.5 2.6-7-4.2v1.4l5.8 3.5-.8.6-5-3v1.4l3.8 2.3-.8.5-3-1.8v1.4l1.8 1-1.8 1.2L2 13.6l11.4-6.8zM1.9 15l11.4 7v1l-7.9-4.7v1.5l8 4.7v1.1l-8-4.7v1.4l8 4.8 8.2-4.8V17l3.4-2v10l-11.5 6.9-11.6-7v-9.8z"/></symbol><symbol id="footer__logo-desktop"><path d="M71.87 18.66c0-.7.58-1.29 1.26-1.29h7.18c5.09 0 8.44 2.7 8.44 7.15v.06c0 4.86-4.06 7.38-8.86 7.38h-5.47v6.82c0 .7-.58 1.29-1.3 1.29-.67 0-1.25-.58-1.25-1.29V18.66zM80 29.64c3.73 0 6.18-2 6.18-4.96v-.06c0-3.22-2.41-4.9-6.05-4.9h-5.7v9.92H80zM93.6 18.5c0-.7.58-1.29 1.26-1.29.7 0 1.29.58 1.29 1.29v20.28c0 .71-.58 1.29-1.3 1.29-.67 0-1.25-.58-1.25-1.29V18.5zm9.14.03c0-.67.58-1.25 1.26-1.25h.35c.58 0 .94.29 1.3.74l13.68 17.45v-17c0-.68.54-1.26 1.25-1.26.68 0 1.23.58 1.23 1.26v20.35c0 .67-.48 1.19-1.16 1.19h-.13c-.55 0-.94-.32-1.32-.78l-13.97-17.86v17.45c0 .67-.55 1.25-1.26 1.25-.68 0-1.22-.58-1.22-1.25V18.53zm25.43-.03c0-.7.58-1.29 1.26-1.29.7 0 1.29.58 1.29 1.29v12.33l12.84-13.17c.3-.25.58-.45 1-.45.68 0 1.23.61 1.23 1.26 0 .35-.16.64-.42.9l-7.99 7.92 8.57 10.56c.22.3.35.55.35.94 0 .67-.58 1.28-1.28 1.28-.49 0-.81-.26-1.03-.58l-8.4-10.46-4.87 4.86v4.9c0 .7-.58 1.28-1.28 1.28-.68 0-1.26-.58-1.26-1.28V18.5z"/><path class="sprite__footer-icon-desktop" fill="#D22856" d="M98.5 9.88c-2 0-3.62-1.63-3.62-3.63 0 2-1.63 3.62-3.63 3.62 2 0 3.63 1.63 3.63 3.63 0-2 1.62-3.63 3.62-3.63z"/><g fill="#D22856"><path class="sprite__footer-icon-desktop" d="M43.1 19.31c.24 0 .48.02.72.04a2.5 2.5 0 00-2.13-1.23 2 2 0 01-1.89-1.35c-.72.2-1.42.48-2.09.82.07.01.13.03.2.03a2 2 0 012 2c0 .1-.02.2-.03.29a9 9 0 013.21-.6z"/><path class="sprite__footer-icon-desktop" d="M60.46 28.02L55.3 6.65C54.93 4.3 52.69 0 46.69 0a1.5 1.5 0 100 3c4.85 0 5.57 3.73 5.64 4.14l4.76 19.7h-2.07a12.04 12.04 0 00-5.3-8.52 2.5 2.5 0 00-1.53 2.3c0 .1-.02.18-.03.26a9.03 9.03 0 01-5.07 16.5 9.03 9.03 0 01-8.08-13.02 2 2 0 01-1.86-1.98.74.74 0 00-.19-.49 11.95 11.95 0 00-1.8 4.96h-1.81a12.03 12.03 0 00-23.85 0H3.41l4.77-19.7C8.25 6.72 8.97 3 13.83 3a1.5 1.5 0 100-3c-6.01 0-8.24 4.3-8.6 6.65L.05 28.02c-.26 1.1.53 1.82 1.43 1.82H5.5c.08.64.21 1.24.38 1.84.06-.1.1-.23.1-.36a2 2 0 012.48-1.93 8.34 8.34 0 01.06-2.55 9.03 9.03 0 113.51 8.74c-.35.3-.8.5-1.3.5a.75.75 0 00-.74.74c0 .29-.07.56-.18.81a11.94 11.94 0 007.61 2.74c6.13 0 11.19-4.6 11.93-10.52h1.82c.74 5.92 5.8 10.52 11.92 10.52s11.19-4.6 11.93-10.52H59l.04-.01c.9 0 1.69-.71 1.42-1.82z"/></g><path class="sprite__footer-icon-desktop" fill="#283645" d="M50.69 16.13a4.5 4.5 0 01-4.5-4.5 4.5 4.5 0 01-4.5 4.5 4.5 4.5 0 014.5 4.5 4.5 4.5 0 014.5-4.5zm-12.79 3.5a2.75 2.75 0 01-2.74-2.75 2.75 2.75 0 01-2.75 2.75 2.75 2.75 0 012.75 2.75 2.75 2.75 0 012.74-2.75zM10.73 34.07a2.75 2.75 0 01-2.75-2.75 2.75 2.75 0 01-2.74 2.75 2.75 2.75 0 012.74 2.75 2.75 2.75 0 012.75-2.75z"/><path class="sprite__footer-icon-tablet" fill="#D22856" d="M60.46 28.02L55.3 6.65C54.93 4.3 52.69 0 46.69 0a1.5 1.5 0 100 3c4.85 0 5.57 3.73 5.64 4.14l4.76 19.7h-2.07c-.74-5.92-5.8-10.53-11.93-10.53s-11.18 4.6-11.92 10.53h-1.82c-.74-5.92-5.8-10.53-11.93-10.53S6.23 20.91 5.49 26.84H3.42l4.77-19.7C8.25 6.73 8.97 3 13.83 3a1.5 1.5 0 100-3c-6.01 0-8.24 4.3-8.6 6.65L.05 28.02c-.26 1.1.53 1.82 1.43 1.82H5.5c.74 5.93 5.8 10.54 11.92 10.54s11.19-4.6 11.93-10.53h1.81c.75 5.92 5.8 10.53 11.93 10.53s11.19-4.6 11.93-10.53h4.02c.9 0 1.69-.73 1.42-1.83zm-34.15 1.82a9.03 9.03 0 11-17.8-2.98 9.03 9.03 0 0117.8 2.98zm25.68 0a9.03 9.03 0 11-17.8-2.99 9.03 9.03 0 0117.8 3z"/></symbol><symbol id="logo--icon-desktop"><path d="M71.87 18.66c0-.7.58-1.29 1.26-1.29h7.18c5.09 0 8.44 2.7 8.44 7.15v.06c0 4.86-4.06 7.38-8.86 7.38h-5.47v6.82c0 .7-.58 1.29-1.3 1.29-.67 0-1.25-.58-1.25-1.29V18.66zM80 29.64c3.73 0 6.18-2 6.18-4.96v-.06c0-3.22-2.41-4.9-6.05-4.9h-5.7v9.92H80zM93.6 18.5c0-.7.58-1.29 1.26-1.29.7 0 1.29.58 1.29 1.29v20.28a1.3 1.3 0 01-1.3 1.29c-.67 0-1.25-.58-1.25-1.29V18.5zm9.14.03c0-.67.58-1.25 1.26-1.25h.35c.58 0 .94.29 1.3.74l13.68 17.45v-17c0-.68.54-1.26 1.25-1.26.68 0 1.23.58 1.23 1.26v20.35c0 .67-.49 1.19-1.16 1.19h-.13c-.55 0-.94-.32-1.32-.78l-13.98-17.86v17.45c0 .67-.54 1.25-1.25 1.25-.68 0-1.22-.58-1.22-1.25V18.53zm25.43-.03c0-.7.58-1.29 1.26-1.29.7 0 1.29.58 1.29 1.29v12.33l12.84-13.17c.3-.25.58-.45 1-.45.68 0 1.23.61 1.23 1.26 0 .35-.16.64-.42.9l-7.99 7.92 8.57 10.56c.22.3.35.55.35.94a1.3 1.3 0 01-1.28 1.28c-.49 0-.81-.25-1.03-.58l-8.4-10.46-4.87 4.86v4.9c0 .7-.58 1.28-1.29 1.28-.67 0-1.25-.58-1.25-1.29V18.5z"/><path class="sprite__icon-desktop" fill="#D22856" d="M98.5 9.88c-2 0-3.62-1.63-3.62-3.63 0 2-1.63 3.62-3.63 3.62 2 0 3.63 1.63 3.63 3.63 0-2 1.62-3.63 3.62-3.63z"/><path class="sprite__icon-desktop" d="M43.1 19.31c.24 0 .48.02.72.04a2.5 2.5 0 00-2.13-1.23 2 2 0 01-1.89-1.35c-.72.2-1.42.48-2.09.82.07.01.13.03.2.03a2 2 0 012 2c0 .1-.02.2-.03.29a9 9 0 013.21-.6z"/><path class="sprite__icon-desktop" d="M60.46 28.02L55.3 6.65C54.93 4.3 52.69 0 46.69 0a1.5 1.5 0 100 3c4.85 0 5.57 3.73 5.64 4.14l4.76 19.7h-2.07a12.04 12.04 0 00-5.3-8.52 2.5 2.5 0 00-1.53 2.3c0 .1-.02.18-.03.26a9.03 9.03 0 01-5.07 16.5 9.03 9.03 0 01-8.08-13.02 2 2 0 01-1.86-1.98.74.74 0 00-.19-.5 11.95 11.95 0 00-1.8 4.97h-1.81a12.04 12.04 0 00-23.86-.01H3.42l4.77-19.7C8.25 6.73 8.97 3 13.83 3a1.5 1.5 0 100-3c-6.01 0-8.24 4.3-8.6 6.65L.05 28.02c-.26 1.1.53 1.82 1.43 1.82H5.5c.08.63.21 1.24.38 1.84.06-.1.1-.23.1-.36a2 2 0 012.48-1.93 8.34 8.34 0 01.06-2.55 9.03 9.03 0 113.51 8.74 2 2 0 01-1.3.5.75.75 0 00-.74.74 2 2 0 01-.18.81 11.94 11.94 0 007.61 2.74c6.13 0 11.19-4.6 11.93-10.52h1.82a12.03 12.03 0 0023.85 0h4.02c.9 0 1.69-.73 1.42-1.83z"/><path class="sprite__icon-desktop" fill="#D22856" d="M50.69 16.13a4.5 4.5 0 01-4.5-4.5 4.5 4.5 0 01-4.5 4.5 4.5 4.5 0 014.5 4.5 4.5 4.5 0 014.5-4.5zm-12.79 3.5a2.75 2.75 0 01-2.74-2.75 2.75 2.75 0 01-2.75 2.75 2.75 2.75 0 012.75 2.75 2.75 2.75 0 012.74-2.75zM10.73 34.07a2.75 2.75 0 01-2.75-2.75 2.75 2.75 0 01-2.74 2.75 2.75 2.75 0 012.74 2.75 2.75 2.75 0 012.75-2.75z"/><path class="sprite__icon-tablet" d="M60.46 28.02L55.3 6.65C54.93 4.3 52.69 0 46.69 0a1.5 1.5 0 100 3c4.85 0 5.57 3.73 5.64 4.14l4.76 19.7h-2.07c-.74-5.92-5.8-10.53-11.93-10.53s-11.18 4.6-11.92 10.53h-1.82c-.74-5.92-5.8-10.53-11.93-10.53S6.23 20.91 5.49 26.84H3.42l4.77-19.7C8.25 6.73 8.97 3 13.83 3a1.5 1.5 0 100-3c-6.01 0-8.24 4.3-8.6 6.65L.05 28.02c-.26 1.1.53 1.82 1.43 1.82H5.5c.74 5.93 5.8 10.54 11.92 10.54s11.19-4.6 11.93-10.53h1.81c.75 5.92 5.8 10.53 11.93 10.53s11.19-4.6 11.93-10.53h4.02c.9 0 1.69-.73 1.42-1.83zm-34.15 1.82a9.03 9.03 0 11-17.8-2.98 9.03 9.03 0 0117.8 2.98zm25.68 0a9.03 9.03 0 11-17.8-2.99 9.03 9.03 0 0117.8 3z"/></symbol></svg>